<svg width="10" height="10" viewBox="0 0 10 10" fill="none" xmlns="http://www.w3.org/2000/svg">
<path d="M4.1665 6.66537H5.83317C5.95123 6.66537 6.05025 6.62536 6.13025 6.54536C6.21025 6.46536 6.25011 6.36648 6.24984 6.2487V4.9987C6.24984 4.88064 6.20984 4.78175 6.12984 4.70203C6.04984 4.62231 5.95095 4.58231 5.83317 4.58203V4.16536C5.83317 3.9362 5.75164 3.74009 5.58859 3.57703C5.42553 3.41398 5.22928 3.33231 4.99984 3.33203C4.77039 3.33175 4.57428 3.41342 4.4115 3.57703C4.24873 3.74064 4.16706 3.93675 4.1665 4.16536V4.58203C4.04845 4.58203 3.94956 4.62203 3.86984 4.70203C3.79012 4.78203 3.75011 4.88092 3.74984 4.9987V6.2487C3.74984 6.36675 3.78984 6.46578 3.86984 6.54578C3.94984 6.62578 4.04873 6.66564 4.1665 6.66537ZM4.58317 4.58203V4.16536C4.58317 4.04731 4.62317 3.94842 4.70317 3.8687C4.78317 3.78898 4.88206 3.74898 4.99984 3.7487C5.11761 3.74842 5.21664 3.78842 5.29692 3.8687C5.3772 3.94898 5.41706 4.04786 5.4165 4.16536V4.58203H4.58317ZM4.86442 9.11328C4.82275 9.10634 4.78109 9.09592 4.73942 9.08203C3.80192 8.76953 3.05539 8.19134 2.49984 7.34745C1.94428 6.50356 1.6665 5.59564 1.6665 4.6237V2.65495C1.6665 2.48134 1.71692 2.32509 1.81775 2.1862C1.91859 2.04731 2.04873 1.94661 2.20817 1.88411L4.70817 0.946615C4.80539 0.911892 4.90261 0.894531 4.99984 0.894531C5.09706 0.894531 5.19428 0.911892 5.2915 0.946615L7.7915 1.88411C7.95123 1.94661 8.0815 2.04731 8.18234 2.1862C8.28317 2.32509 8.33345 2.48134 8.33317 2.65495V4.6237C8.33317 5.59592 8.05539 6.50398 7.49984 7.34787C6.94428 8.19175 6.19775 8.76981 5.26025 9.08203C5.21859 9.09592 5.17692 9.10634 5.13525 9.11328C5.09359 9.12023 5.04845 9.1237 4.99984 9.1237C4.95123 9.1237 4.90609 9.12023 4.86442 9.11328Z" fill="#3B82F6"/>
</svg>
