<svg width="24" height="24" viewBox="0 0 24 24" fill="none" xmlns="http://www.w3.org/2000/svg">
<path fill-rule="evenodd" clip-rule="evenodd" d="M20.9452 15.0019C21.0052 15.5509 20.5522 15.9999 20.0002 15.9999H16.9952C16.4432 15.9999 16.0072 15.5459 15.8702 15.0099C15.7346 14.4795 15.4916 13.9826 15.1562 13.5499L18.7082 9.99992C19.9556 11.3942 20.7375 13.1426 20.9452 15.0019ZM18.0002 9.29192C16.4783 7.93068 14.5388 7.12738 12.5002 7.01392V12.0369C13.2103 12.1267 13.8834 12.4054 14.4492 12.8439L18.0002 9.29192ZM9.55115 12.8439C10.1169 12.4054 10.79 12.1267 11.5002 12.0369V7.01392C9.46149 7.12738 7.52201 7.93068 6.00015 9.29192L9.55115 12.8439ZM5.29215 9.99892C4.04453 11.3935 3.2626 13.1423 3.05515 15.0019C2.99515 15.5509 3.44815 15.9999 4.00015 15.9999H7.00515C7.55715 15.9999 7.99315 15.5459 8.13015 15.0099C8.26574 14.4795 8.50875 13.9826 8.84415 13.5499L5.29215 9.99892Z" fill="#155EEF"/>
</svg>
